# xmcd
#
# Track frame offsets:
# 150
# 16917
# 30962
# 44222
# 55035
# 69880
# 83030
# 97797
# 119557
# 138002
# 152822
# 165487
# 177600
# 188140
# 202247
# 222760
# 235117
#
# Disc length: 3343 seconds
#
#
# Revision: 0
# Processed by: cddbd v1.5.2PL0 Copyright (c) Steve Scherf et al.
# Submitted via: FreeRIP 2.90 
#
DISCID=de0d0d11
DTITLE=Barretos 2008 - Barretos 2008
DYEAR=2008
DGENRE=Rodeio
TTITLE0=Saudade Pica-Pau - Trio Alto Astral
TTITLE1=Melo do Lalá - Mauricio and Marcelo
TTITLE2=Derramando Saudade - Jander and Jardel
TTITLE3=Chocolata - Luan Santana
TTITLE4=Falando Sário - João Bosco and Vinicius
TTITLE5=Loira Não É Burra - Teodoro and Sampaio
TTITLE6=Tá Bombando - Chico Amado and Xodó
TTITLE7=Eu e a Lua - Jânio and Junior
TTITLE8=Antes Que Você Vá - Fabrico and Fabian
TTITLE9=Dança do Sapinho - Fylé - Part Barra Manssa - Wander Marttins
TTITLE10=Alguem Viu Ela por Aí - Creone and Parrerito
TTITLE11=Ela Não Bana Não - Pedro Henrique and Luisinho
TTITLE12=Fusquinha 69 - Carlito and Rodrigo
TTITLE13=Tchê Tchê Tchê Tchê - Tenório and Praense
TTITLE14=Encanto de Sereia - fredy and Matheus
TTITLE15=Cachaça Derruba a Gente - Cristiano Fragoso
TTITLE16=Tá Achando Que Nóis É Bagunça - Frann Jr and Delluc
EXTD=Pot By Tosh2005
EXTT0=
EXTT1=
EXTT2=
EXTT3=
EXTT4=
EXTT5=
EXTT6=
EXTT7=
EXTT8=
EXTT9=
EXTT10=
EXTT11=
EXTT12=
EXTT13=
EXTT14=
EXTT15=
EXTT16=
PLAYORDER=
